<?xml version="1.0" encoding="iso-8859-1"?>
<!-- Generator: Adobe Illustrator 19.0.0, SVG Export Plug-In . SVG Version: 6.00 Build 0)  -->
<svg xmlns="http://www.w3.org/2000/svg" xmlns:xlink="http://www.w3.org/1999/xlink" version="1.1" id="Capa_1" x="0px" y="0px" viewBox="0 0 512 512" style="enable-background:new 0 0 512 512;" xml:space="preserve" width="512px" height="512px">
<g>
	<g>
		<g>
			<path d="M464,128h-64c-26.51,0-48,21.49-48,48v16h-32V0H137.376L32,105.376V192H0v256c0,35.346,28.654,64,64,64h400     c26.51,0,48-21.49,48-48V176C512,149.49,490.51,128,464,128z M128,54.624V96H86.624L128,54.624z M64,128h96V32h128v160H64V128z      M352,480H64c-17.673,0-32-14.327-32-32V224h320V480z M480,464c0,8.837-7.163,16-16,16h-80V176c0-8.837,7.163-16,16-16h64     c8.837,0,16,7.163,16,16V464z" fill="#29323c"/>
			<rect x="80" y="256" width="224" height="32" fill="#29323c"/>
			<rect x="80" y="320" width="32" height="32" fill="#29323c"/>
			<rect x="144" y="320" width="32" height="32" fill="#29323c"/>
			<rect x="208" y="320" width="32" height="32" fill="#29323c"/>
			<rect x="272" y="320" width="32" height="32" fill="#29323c"/>
			<rect x="80" y="384" width="32" height="32" fill="#29323c"/>
			<rect x="144" y="384" width="32" height="32" fill="#29323c"/>
			<rect x="208" y="384" width="32" height="32" fill="#29323c"/>
			<rect x="272" y="384" width="32" height="32" fill="#29323c"/>
		</g>
	</g>
</g>
<g>
</g>
<g>
</g>
<g>
</g>
<g>
</g>
<g>
</g>
<g>
</g>
<g>
</g>
<g>
</g>
<g>
</g>
<g>
</g>
<g>
</g>
<g>
</g>
<g>
</g>
<g>
</g>
<g>
</g>
</svg>
